<mxfile host="app.diagrams.net" modified="2023-07-03T03:40:12.560Z" agent="Mozilla/5.0 (Windows NT 10.0; Win64; x64) AppleWebKit/537.36 (KHTML, like Gecko) Chrome/114.0.0.0 Safari/537.36 Edg/114.0.1823.67" version="21.3.5" etag="aB1AbvgblIFRE_ECVYOy" type="github">
  <diagram name="Page-1" id="yT5Fr_4KWCaXBi1Gqpkg">
    <mxGraphModel>
      <root>
        <mxCell id="0" />
        <mxCell id="1" parent="0" />
      </root>
    </mxGraphModel>
  </diagram>
</mxfile>
